<?xml version="1.0" encoding="UTF-8"?>
<!DOCTYPE svg PUBLIC "-//W3C//DTD SVG 1.1//EN" "http://www.w3.org/Graphics/SVG/1.1/DTD/svg11.dtd">
<!-- Creator: CorelDRAW X8 -->
<svg xmlns="http://www.w3.org/2000/svg" xml:space="preserve" width="215.9mm" height="115.147mm" version="1.1" style="shape-rendering:geometricPrecision; text-rendering:geometricPrecision; image-rendering:optimizeQuality; fill-rule:evenodd; clip-rule:evenodd"
viewBox="0 0 21590 11515"
 xmlns:xlink="http://www.w3.org/1999/xlink">
 <defs>
  <style type="text/css">
   <![CDATA[
    .fil1 {fill:#FEFEFE}
    .fil15 {fill:#CCCCCC}
    .fil18 {fill:#FEFEFE;fill-opacity:0.231373}
    .fil16 {fill:#FEFEFE;fill-opacity:0.490196}
    .fil17 {fill:#FEFEFE;fill-opacity:0.549020}
    .fil11 {fill:url(#id69)}
    .fil5 {fill:url(#id70)}
    .fil2 {fill:url(#id71)}
    .fil8 {fill:url(#id72)}
    .fil14 {fill:url(#id73)}
    .fil3 {fill:url(#id74)}
    .fil9 {fill:url(#id75)}
    .fil13 {fill:url(#id76)}
    .fil6 {fill:url(#id77)}
    .fil12 {fill:url(#id78)}
    .fil7 {fill:url(#id79)}
    .fil4 {fill:url(#id80)}
    .fil10 {fill:url(#id81)}
    .fil0 {fill:url(#id82)}
   ]]>
  </style>
   <clipPath id="id0">
    <rect width="21590" height="11515"/>
   </clipPath>
    <mask id="id1">
  <radialGradient id="id2" gradientUnits="userSpaceOnUse" cx="8135.58" cy="3747.39" r="38.4225" fx="8135.58" fy="3747.39">
   <stop offset="0" style="stop-opacity:1; stop-color:white"/>
   <stop offset="0.211765" style="stop-opacity:0.501961; stop-color:white"/>
   <stop offset="1" style="stop-opacity:0; stop-color:white"/>
  </radialGradient>
     <rect style="fill:url(#id2)" x="8081" y="3692" width="216" height="216"/>
    </mask>
    <mask id="id3">
  <radialGradient id="id4" gradientUnits="userSpaceOnUse" cx="8210.29" cy="3822.16" r="50.4806" fx="8210.29" fy="3822.16">
   <stop offset="0" style="stop-opacity:1; stop-color:white"/>
   <stop offset="0.290196" style="stop-opacity:1.50196; stop-color:white"/>
   <stop offset="1" style="stop-opacity:0; stop-color:white"/>
  </radialGradient>
     <rect style="fill:url(#id4)" x="8155" y="3767" width="66.57" height="66.57"/>
    </mask>
    <mask id="id5">
  <radialGradient id="id6" gradientUnits="userSpaceOnUse" cx="7827.39" cy="2243.4" r="38.4225" fx="7827.39" fy="2243.4">
   <stop offset="0" style="stop-opacity:1; stop-color:white"/>
   <stop offset="0.211765" style="stop-opacity:0.501961; stop-color:white"/>
   <stop offset="1" style="stop-opacity:0; stop-color:white"/>
  </radialGradient>
     <rect style="fill:url(#id6)" x="7772" y="2188" width="216" height="216"/>
    </mask>
    <mask id="id7">
  <radialGradient id="id8" gradientUnits="userSpaceOnUse" cx="7902.1" cy="2318.16" r="50.4806" fx="7902.1" fy="2318.16">
   <stop offset="0" style="stop-opacity:1; stop-color:white"/>
   <stop offset="0.290196" style="stop-opacity:1.50196; stop-color:white"/>
   <stop offset="1" style="stop-opacity:0; stop-color:white"/>
  </radialGradient>
     <rect style="fill:url(#id8)" x="7847" y="2263" width="66.57" height="66.57"/>
    </mask>
    <mask id="id9">
  <radialGradient id="id10" gradientUnits="userSpaceOnUse" cx="8200.41" cy="2768.54" r="38.4225" fx="8200.41" fy="2768.54">
   <stop offset="0" style="stop-opacity:1; stop-color:white"/>
   <stop offset="0.211765" style="stop-opacity:0.501961; stop-color:white"/>
   <stop offset="1" style="stop-opacity:0; stop-color:white"/>
  </radialGradient>
     <rect style="fill:url(#id10)" x="8145" y="2714" width="581" height="581"/>
    </mask>
    <mask id="id11">
  <radialGradient id="id12" gradientUnits="userSpaceOnUse" cx="8414.18" cy="2982.45" r="50.4806" fx="8414.18" fy="2982.45">
   <stop offset="0" style="stop-opacity:1; stop-color:white"/>
   <stop offset="0.290196" style="stop-opacity:1.50196; stop-color:white"/>
   <stop offset="1" style="stop-opacity:0; stop-color:white"/>
  </radialGradient>
     <rect style="fill:url(#id12)" x="8359" y="2927" width="153" height="153"/>
    </mask>
    <mask id="id13">
  <radialGradient id="id14" gradientUnits="userSpaceOnUse" cx="6918.59" cy="3073.17" r="38.4225" fx="6918.59" fy="3073.17">
   <stop offset="0" style="stop-opacity:1; stop-color:white"/>
   <stop offset="0.211765" style="stop-opacity:0.501961; stop-color:white"/>
   <stop offset="1" style="stop-opacity:0; stop-color:white"/>
  </radialGradient>
     <rect style="fill:url(#id14)" x="6864" y="3018" width="216" height="216"/>
    </mask>
    <mask id="id15">
  <radialGradient id="id16" gradientUnits="userSpaceOnUse" cx="6993.35" cy="3147.94" r="50.4806" fx="6993.35" fy="3147.94">
   <stop offset="0" style="stop-opacity:1; stop-color:white"/>
   <stop offset="0.290196" style="stop-opacity:1.50196; stop-color:white"/>
   <stop offset="1" style="stop-opacity:0; stop-color:white"/>
  </radialGradient>
     <rect style="fill:url(#id16)" x="6938" y="3093" width="66.57" height="66.57"/>
    </mask>
    <mask id="id17">
  <radialGradient id="id18" gradientUnits="userSpaceOnUse" cx="7226.78" cy="1569.18" r="38.4225" fx="7226.78" fy="1569.18">
   <stop offset="0" style="stop-opacity:1; stop-color:white"/>
   <stop offset="0.211765" style="stop-opacity:0.501961; stop-color:white"/>
   <stop offset="1" style="stop-opacity:0; stop-color:white"/>
  </radialGradient>
     <rect style="fill:url(#id18)" x="7172" y="1514" width="216" height="216"/>
    </mask>
    <mask id="id19">
  <radialGradient id="id20" gradientUnits="userSpaceOnUse" cx="7301.54" cy="1643.94" r="50.4806" fx="7301.54" fy="1643.94">
   <stop offset="0" style="stop-opacity:1; stop-color:white"/>
   <stop offset="0.290196" style="stop-opacity:1.50196; stop-color:white"/>
   <stop offset="1" style="stop-opacity:0; stop-color:white"/>
  </radialGradient>
     <rect style="fill:url(#id20)" x="7247" y="1589" width="66.57" height="66.57"/>
    </mask>
    <mask id="id21">
  <radialGradient id="id22" gradientUnits="userSpaceOnUse" cx="6488.89" cy="2094.32" r="38.4225" fx="6488.89" fy="2094.32">
   <stop offset="0" style="stop-opacity:1; stop-color:white"/>
   <stop offset="0.211765" style="stop-opacity:0.501961; stop-color:white"/>
   <stop offset="1" style="stop-opacity:0; stop-color:white"/>
  </radialGradient>
     <rect style="fill:url(#id22)" x="6434" y="2039" width="581" height="581"/>
    </mask>
    <mask id="id23">
  <radialGradient id="id24" gradientUnits="userSpaceOnUse" cx="6702.8" cy="2308.23" r="50.4806" fx="6702.8" fy="2308.23">
   <stop offset="0" style="stop-opacity:1; stop-color:white"/>
   <stop offset="0.290196" style="stop-opacity:1.50196; stop-color:white"/>
   <stop offset="1" style="stop-opacity:0; stop-color:white"/>
  </radialGradient>
     <rect style="fill:url(#id24)" x="6648" y="2253" width="153" height="153"/>
    </mask>
    <mask id="id25">
  <radialGradient id="id26" gradientUnits="userSpaceOnUse" cx="8151.53" cy="5607.01" r="38.4225" fx="8151.53" fy="5607.01">
   <stop offset="0" style="stop-opacity:1; stop-color:white"/>
   <stop offset="0.211765" style="stop-opacity:0.501961; stop-color:white"/>
   <stop offset="1" style="stop-opacity:0; stop-color:white"/>
  </radialGradient>
     <rect style="fill:url(#id26)" x="8097" y="5552" width="216" height="216"/>
    </mask>
    <mask id="id27">
  <radialGradient id="id28" gradientUnits="userSpaceOnUse" cx="8226.24" cy="5681.78" r="50.4806" fx="8226.24" fy="5681.78">
   <stop offset="0" style="stop-opacity:1; stop-color:white"/>
   <stop offset="0.290196" style="stop-opacity:1.50196; stop-color:white"/>
   <stop offset="1" style="stop-opacity:0; stop-color:white"/>
  </radialGradient>
     <rect style="fill:url(#id28)" x="8171" y="5627" width="66.57" height="66.57"/>
    </mask>
    <mask id="id29">
  <radialGradient id="id30" gradientUnits="userSpaceOnUse" cx="7843.34" cy="4103.02" r="38.4225" fx="7843.34" fy="4103.02">
   <stop offset="0" style="stop-opacity:1; stop-color:white"/>
   <stop offset="0.211765" style="stop-opacity:0.501961; stop-color:white"/>
   <stop offset="1" style="stop-opacity:0; stop-color:white"/>
  </radialGradient>
     <rect style="fill:url(#id30)" x="7788" y="4048" width="216" height="216"/>
    </mask>
    <mask id="id31">
  <radialGradient id="id32" gradientUnits="userSpaceOnUse" cx="7918.05" cy="4177.78" r="50.4806" fx="7918.05" fy="4177.78">
   <stop offset="0" style="stop-opacity:1; stop-color:white"/>
   <stop offset="0.290196" style="stop-opacity:1.50196; stop-color:white"/>
   <stop offset="1" style="stop-opacity:0; stop-color:white"/>
  </radialGradient>
     <rect style="fill:url(#id32)" x="7863" y="4123" width="66.57" height="66.57"/>
    </mask>
    <mask id="id33">
  <radialGradient id="id34" gradientUnits="userSpaceOnUse" cx="8216.36" cy="4628.16" r="38.4225" fx="8216.36" fy="4628.16">
   <stop offset="0" style="stop-opacity:1; stop-color:white"/>
   <stop offset="0.211765" style="stop-opacity:0.501961; stop-color:white"/>
   <stop offset="1" style="stop-opacity:0; stop-color:white"/>
  </radialGradient>
     <rect style="fill:url(#id34)" x="8161" y="4573" width="581" height="581"/>
    </mask>
    <mask id="id35">
  <radialGradient id="id36" gradientUnits="userSpaceOnUse" cx="8430.13" cy="4842.07" r="50.4806" fx="8430.13" fy="4842.07">
   <stop offset="0" style="stop-opacity:1; stop-color:white"/>
   <stop offset="0.290196" style="stop-opacity:1.50196; stop-color:white"/>
   <stop offset="1" style="stop-opacity:0; stop-color:white"/>
  </radialGradient>
     <rect style="fill:url(#id36)" x="8375" y="4787" width="153" height="153"/>
    </mask>
    <mask id="id37">
  <radialGradient id="id38" gradientUnits="userSpaceOnUse" cx="6934.54" cy="4932.79" r="38.4225" fx="6934.54" fy="4932.79">
   <stop offset="0" style="stop-opacity:1; stop-color:white"/>
   <stop offset="0.211765" style="stop-opacity:0.501961; stop-color:white"/>
   <stop offset="1" style="stop-opacity:0; stop-color:white"/>
  </radialGradient>
     <rect style="fill:url(#id38)" x="6880" y="4878" width="216" height="216"/>
    </mask>
    <mask id="id39">
  <radialGradient id="id40" gradientUnits="userSpaceOnUse" cx="7009.3" cy="5007.56" r="50.4806" fx="7009.3" fy="5007.56">
   <stop offset="0" style="stop-opacity:1; stop-color:white"/>
   <stop offset="0.290196" style="stop-opacity:1.50196; stop-color:white"/>
   <stop offset="1" style="stop-opacity:0; stop-color:white"/>
  </radialGradient>
     <rect style="fill:url(#id40)" x="6954" y="4953" width="66.57" height="66.57"/>
    </mask>
    <mask id="id41">
  <radialGradient id="id42" gradientUnits="userSpaceOnUse" cx="7242.73" cy="3428.8" r="38.4225" fx="7242.73" fy="3428.8">
   <stop offset="0" style="stop-opacity:1; stop-color:white"/>
   <stop offset="0.211765" style="stop-opacity:0.501961; stop-color:white"/>
   <stop offset="1" style="stop-opacity:0; stop-color:white"/>
  </radialGradient>
     <rect style="fill:url(#id42)" x="7188" y="3374" width="216" height="216"/>
    </mask>
    <mask id="id43">
  <radialGradient id="id44" gradientUnits="userSpaceOnUse" cx="7317.49" cy="3503.56" r="50.4806" fx="7317.49" fy="3503.56">
   <stop offset="0" style="stop-opacity:1; stop-color:white"/>
   <stop offset="0.290196" style="stop-opacity:1.50196; stop-color:white"/>
   <stop offset="1" style="stop-opacity:0; stop-color:white"/>
  </radialGradient>
     <rect style="fill:url(#id44)" x="7263" y="3449" width="66.57" height="66.57"/>
    </mask>
    <mask id="id45">
  <radialGradient id="id46" gradientUnits="userSpaceOnUse" cx="6504.84" cy="3953.94" r="38.4225" fx="6504.84" fy="3953.94">
   <stop offset="0" style="stop-opacity:1; stop-color:white"/>
   <stop offset="0.211765" style="stop-opacity:0.501961; stop-color:white"/>
   <stop offset="1" style="stop-opacity:0; stop-color:white"/>
  </radialGradient>
     <rect style="fill:url(#id46)" x="6450" y="3899" width="581" height="581"/>
    </mask>
    <mask id="id47">
  <radialGradient id="id48" gradientUnits="userSpaceOnUse" cx="6718.75" cy="4167.85" r="50.4806" fx="6718.75" fy="4167.85">
   <stop offset="0" style="stop-opacity:1; stop-color:white"/>
   <stop offset="0.290196" style="stop-opacity:1.50196; stop-color:white"/>
   <stop offset="1" style="stop-opacity:0; stop-color:white"/>
  </radialGradient>
     <rect style="fill:url(#id48)" x="6664" y="4113" width="153" height="153"/>
    </mask>
    <mask id="id49">
  <radialGradient id="id50" gradientUnits="userSpaceOnUse" cx="7325.1" cy="5361.46" r="38.4225" fx="7325.1" fy="5361.46">
   <stop offset="0" style="stop-opacity:1; stop-color:white"/>
   <stop offset="0.211765" style="stop-opacity:0.501961; stop-color:white"/>
   <stop offset="1" style="stop-opacity:0; stop-color:white"/>
  </radialGradient>
     <rect style="fill:url(#id50)" x="7270" y="5306" width="581" height="581"/>
    </mask>
    <mask id="id51">
  <radialGradient id="id52" gradientUnits="userSpaceOnUse" cx="7538.87" cy="5575.37" r="50.4806" fx="7538.87" fy="5575.37">
   <stop offset="0" style="stop-opacity:1; stop-color:white"/>
   <stop offset="0.290196" style="stop-opacity:1.50196; stop-color:white"/>
   <stop offset="1" style="stop-opacity:0; stop-color:white"/>
  </radialGradient>
     <rect style="fill:url(#id52)" x="7484" y="5520" width="153" height="153"/>
    </mask>
    <mask id="id53">
  <radialGradient id="id54" gradientUnits="userSpaceOnUse" cx="7684.83" cy="1212.83" r="38.4225" fx="7684.83" fy="1212.83">
   <stop offset="0" style="stop-opacity:1; stop-color:white"/>
   <stop offset="0.211765" style="stop-opacity:0.501961; stop-color:white"/>
   <stop offset="1" style="stop-opacity:0; stop-color:white"/>
  </radialGradient>
     <rect style="fill:url(#id54)" x="7630" y="1158" width="581" height="581"/>
    </mask>
    <mask id="id55">
  <radialGradient id="id56" gradientUnits="userSpaceOnUse" cx="7898.74" cy="1426.74" r="50.4806" fx="7898.74" fy="1426.74">
   <stop offset="0" style="stop-opacity:1; stop-color:white"/>
   <stop offset="0.290196" style="stop-opacity:1.50196; stop-color:white"/>
   <stop offset="1" style="stop-opacity:0; stop-color:white"/>
  </radialGradient>
     <rect style="fill:url(#id56)" x="7844" y="1372" width="153" height="153"/>
    </mask>
    <mask id="id57">
  <radialGradient id="id58" gradientUnits="userSpaceOnUse" cx="6896.88" cy="887.31" r="38.4225" fx="6896.88" fy="887.31">
   <stop offset="0" style="stop-opacity:1; stop-color:white"/>
   <stop offset="0.211765" style="stop-opacity:0.501961; stop-color:white"/>
   <stop offset="1" style="stop-opacity:0; stop-color:white"/>
  </radialGradient>
     <rect style="fill:url(#id58)" x="6842" y="832" width="216" height="216"/>
    </mask>
    <mask id="id59">
  <radialGradient id="id60" gradientUnits="userSpaceOnUse" cx="6971.59" cy="962.07" r="50.4806" fx="6971.59" fy="962.07">
   <stop offset="0" style="stop-opacity:1; stop-color:white"/>
   <stop offset="0.290196" style="stop-opacity:1.50196; stop-color:white"/>
   <stop offset="1" style="stop-opacity:0; stop-color:white"/>
  </radialGradient>
     <rect style="fill:url(#id60)" x="6917" y="907" width="66.57" height="66.57"/>
    </mask>
   <clipPath id="id61">
    <rect x="7397" y="2280" width="611" height="4303"/>
   </clipPath>
   <clipPath id="id62">
    <path d="M7397 6583l611 0 0 -4303 -611 0 0 4303z"/>
   </clipPath>
   <clipPath id="id63">
    <rect x="7397" y="2280" width="611" height="4303"/>
   </clipPath>
   <mask id="id64">
  <radialGradient id="id65" gradientUnits="userSpaceOnUse" cx="133.62" cy="7779.78" r="6936.06" fx="133.62" fy="7779.78">
   <stop offset="0" style="stop-opacity:1; stop-color:white"/>
   <stop offset="0.588235" style="stop-opacity:-127.502; stop-color:white"/>
   <stop offset="1" style="stop-opacity:0; stop-color:white"/>
  </radialGradient>
    <rect style="fill:url(#id65)" x="7060" y="6182" width="1287" height="504"/>
   </mask>
   <clipPath id="id66">
    <rect x="6170" y="2107" width="3064" height="4690"/>
   </clipPath>
   <clipPath id="id67">
    <path d="M6170 6797l3065 0 0 -4690 -3065 0 0 4690z"/>
   </clipPath>
   <clipPath id="id68">
    <rect x="6170" y="2107" width="3064" height="4690"/>
   </clipPath>
  <radialGradient id="id69" gradientUnits="userSpaceOnUse" gradientTransform="matrix(0.0540434 1.04259 1.04259 -0.0540434 3271 -3937)" cx="7295.77" cy="3481.84" r="76.46" fx="7295.77" fy="3481.84">
   <stop offset="0" style="stop-opacity:1; stop-color:aqua"/>
   <stop offset="1" style="stop-opacity:1; stop-color:#61FFA0"/>
  </radialGradient>
  <radialGradient id="id70" gradientUnits="userSpaceOnUse" gradientTransform="matrix(0.0540434 1.04259 1.04259 -0.0540434 5195 -5880)" xlink:href="#id69" cx="7279.82" cy="1622.22" r="76.46" fx="7279.82" fy="1622.22">
  </radialGradient>
  <radialGradient id="id71" gradientUnits="userSpaceOnUse" gradientTransform="matrix(-0.0540434 1.04259 -1.04259 -0.0540434 10701 -5796)" xlink:href="#id69" cx="7880.43" cy="2296.44" r="76.46" fx="7880.43" fy="2296.44">
  </radialGradient>
  <radialGradient id="id72" gradientUnits="userSpaceOnUse" gradientTransform="matrix(-0.0540434 1.04259 -1.04259 -0.0540434 12656 -3852)" xlink:href="#id69" cx="7896.38" cy="4156.06" r="76.46" fx="7896.38" fy="4156.06">
  </radialGradient>
  <radialGradient id="id73" gradientUnits="userSpaceOnUse" gradientTransform="matrix(-0.0540434 1.04259 -1.04259 -0.0540434 8306 -6255)" xlink:href="#id69" cx="6949.92" cy="940.35" r="76.46" fx="6949.92" fy="940.35">
  </radialGradient>
  <radialGradient id="id74" gradientUnits="userSpaceOnUse" gradientTransform="matrix(-0.0540439 1.0426 -1.04259 -0.054043 12024 -5629)" xlink:href="#id69" cx="8435.89" cy="3004.02" r="218.76" fx="8435.89" fy="3004.02">
  </radialGradient>
  <radialGradient id="id75" gradientUnits="userSpaceOnUse" gradientTransform="matrix(-0.0540439 1.0426 -1.04259 -0.054043 13979 -3685)" xlink:href="#id69" cx="8451.84" cy="4863.64" r="218.76" fx="8451.84" fy="4863.64">
  </radialGradient>
  <radialGradient id="id76" gradientUnits="userSpaceOnUse" gradientTransform="matrix(-0.0540439 1.0426 -1.04259 -0.054043 13804 -1983)" xlink:href="#id69" cx="7560.58" cy="5596.94" r="218.76" fx="7560.58" fy="5596.94">
  </radialGradient>
  <radialGradient id="id77" gradientUnits="userSpaceOnUse" gradientTransform="matrix(0.0540439 1.0426 1.04259 -0.054043 3932 -4555)" xlink:href="#id69" cx="6724.37" cy="2329.8" r="218.76" fx="6724.37" fy="2329.8">
  </radialGradient>
  <radialGradient id="id78" gradientUnits="userSpaceOnUse" gradientTransform="matrix(0.0540439 1.0426 1.04259 -0.054043 2008 -2612)" xlink:href="#id69" cx="6740.32" cy="4189.42" r="218.76" fx="6740.32" fy="4189.42">
  </radialGradient>
  <radialGradient id="id79" gradientUnits="userSpaceOnUse" gradientTransform="matrix(-0.0540434 1.04259 -1.04265 -0.0540461 14549 -2588)" xlink:href="#id69" cx="8204.57" cy="5660.06" r="76.46" fx="8204.57" fy="5660.06">
  </radialGradient>
  <radialGradient id="id80" gradientUnits="userSpaceOnUse" gradientTransform="matrix(0.0540434 1.04259 1.04265 -0.0540461 3335 -3973)" xlink:href="#id69" cx="6971.63" cy="3126.22" r="76.46" fx="6971.63" fy="3126.22">
  </radialGradient>
  <radialGradient id="id81" gradientUnits="userSpaceOnUse" gradientTransform="matrix(0.0540434 1.04259 1.04265 -0.0540461 1411 -2030)" xlink:href="#id69" cx="6987.58" cy="4985.84" r="76.46" fx="6987.58" fy="4985.84">
  </radialGradient>
  <radialGradient id="id82" gradientUnits="userSpaceOnUse" gradientTransform="matrix(-0.0540434 1.04259 -1.04265 -0.0540461 12594 -4532)" xlink:href="#id69" cx="8188.62" cy="3800.44" r="76.46" fx="8188.62" fy="3800.44">
  </radialGradient>
 </defs>
 <g id="Capa_x0020_1">
  <metadata id="CorelCorpID_0Corel-Layer"/>
  <g style="clip-path:url(#id0)">
   <image x="0" y="0" width="21590" height="11515" xlink:href="imagen pagina web_Images\imagen pagina web_ImgID1.png"/>
  </g>
  <g id="_2169647139552">
   <path class="fil0" style="mask:url(#id1)" d="M8189 3702c54,0 98,44 98,98 0,55 -44,98 -98,98 -55,0 -98,-43 -98,-98 0,-54 43,-98 98,-98z"/>
   <path class="fil1" style="mask:url(#id3)" d="M8189 3777c12,0 23,11 23,23 0,13 -11,24 -23,24 -13,0 -24,-11 -24,-24 0,-12 11,-23 24,-23z"/>
  </g>
  <g id="_2169647142880">
   <path class="fil2" style="mask:url(#id5)" d="M7880 2198c55,0 98,44 98,98 0,55 -43,98 -98,98 -54,0 -98,-43 -98,-98 0,-54 44,-98 98,-98z"/>
   <path class="fil1" style="mask:url(#id7)" d="M7880 2273c13,0 24,11 24,23 0,13 -11,24 -24,24 -12,0 -23,-11 -23,-24 0,-12 11,-23 23,-23z"/>
  </g>
  <g id="_2169647148064">
   <path class="fil3" style="mask:url(#id9)" d="M8436 2724c155,0 280,125 280,280 0,155 -125,280 -280,280 -155,0 -281,-125 -281,-280 0,-155 126,-280 281,-280z"/>
   <path class="fil1" style="mask:url(#id11)" d="M8436 2937c37,0 66,30 66,67 0,37 -29,67 -66,67 -37,0 -67,-30 -67,-67 0,-37 30,-67 67,-67z"/>
  </g>
  <g id="_2169647149248">
   <path class="fil4" style="mask:url(#id13)" d="M6972 3028c-54,0 -98,44 -98,98 0,54 44,98 98,98 54,0 98,-44 98,-98 0,-54 -44,-98 -98,-98z"/>
   <path class="fil1" style="mask:url(#id15)" d="M6972 3103c-13,0 -24,10 -24,23 0,13 11,24 24,24 13,0 23,-11 23,-24 0,-13 -10,-23 -23,-23z"/>
  </g>
  <g id="_2169647150496">
   <path class="fil5" style="mask:url(#id17)" d="M7280 1524c-54,0 -98,44 -98,98 0,54 44,98 98,98 54,0 98,-44 98,-98 0,-54 -44,-98 -98,-98z"/>
   <path class="fil1" style="mask:url(#id19)" d="M7280 1599c-13,0 -23,10 -23,23 0,13 10,24 23,24 13,0 23,-11 23,-24 0,-13 -10,-23 -23,-23z"/>
  </g>
  <g id="_2169647152800">
   <path class="fil6" style="mask:url(#id21)" d="M6724 2049c-155,0 -280,126 -280,281 0,155 125,280 280,280 155,0 281,-125 281,-280 0,-155 -126,-281 -281,-281z"/>
   <path class="fil1" style="mask:url(#id23)" d="M6724 2263c-36,0 -66,30 -66,67 0,37 30,66 66,66 37,0 67,-29 67,-66 0,-37 -30,-67 -67,-67z"/>
  </g>
  <g id="_2169647154592">
   <path class="fil7" style="mask:url(#id25)" d="M8205 5562c54,0 98,44 98,98 0,54 -44,98 -98,98 -55,0 -98,-44 -98,-98 0,-54 43,-98 98,-98z"/>
   <path class="fil1" style="mask:url(#id27)" d="M8205 5637c12,0 23,10 23,23 0,13 -11,23 -23,23 -13,0 -24,-10 -24,-23 0,-13 11,-23 24,-23z"/>
  </g>
  <g id="_2169647154176">
   <path class="fil8" style="mask:url(#id29)" d="M7896 4058c55,0 98,44 98,98 0,54 -43,98 -98,98 -54,0 -98,-44 -98,-98 0,-54 44,-98 98,-98z"/>
   <path class="fil1" style="mask:url(#id31)" d="M7896 4133c13,0 24,10 24,23 0,13 -11,23 -24,23 -12,0 -23,-10 -23,-23 0,-13 11,-23 23,-23z"/>
  </g>
  <g id="_2169647155936">
   <path class="fil9" style="mask:url(#id33)" d="M8452 4583c155,0 280,126 280,281 0,155 -125,280 -280,280 -155,0 -281,-125 -281,-280 0,-155 126,-281 281,-281z"/>
   <path class="fil1" style="mask:url(#id35)" d="M8452 4797c37,0 66,30 66,67 0,37 -29,66 -66,66 -37,0 -67,-29 -67,-66 0,-37 30,-67 67,-67z"/>
  </g>
  <g id="_2169647155904">
   <path class="fil10" style="mask:url(#id37)" d="M6988 4888c-55,0 -98,44 -98,98 0,54 43,98 98,98 54,0 98,-44 98,-98 0,-54 -44,-98 -98,-98z"/>
   <path class="fil1" style="mask:url(#id39)" d="M6988 4963c-13,0 -24,10 -24,23 0,13 11,23 24,23 12,0 23,-10 23,-23 0,-13 -11,-23 -23,-23z"/>
  </g>
  <g id="_2169647161632">
   <path class="fil11" style="mask:url(#id41)" d="M7296 3384c-54,0 -98,44 -98,98 0,54 44,98 98,98 54,0 98,-44 98,-98 0,-54 -44,-98 -98,-98z"/>
   <path class="fil1" style="mask:url(#id43)" d="M7296 3459c-13,0 -23,10 -23,23 0,13 10,23 23,23 13,0 23,-10 23,-23 0,-13 -10,-23 -23,-23z"/>
  </g>
  <g id="_2169647162144">
   <path class="fil12" style="mask:url(#id45)" d="M6740 3909c-155,0 -280,126 -280,280 0,155 125,281 280,281 155,0 281,-126 281,-281 0,-154 -126,-280 -281,-280z"/>
   <path class="fil1" style="mask:url(#id47)" d="M6740 4123c-36,0 -66,30 -66,66 0,37 30,67 66,67 37,0 67,-30 67,-67 0,-36 -30,-66 -67,-66z"/>
  </g>
  <g id="_2169647183072">
   <path class="fil13" style="mask:url(#id49)" d="M7561 5316c154,0 280,126 280,281 0,155 -126,280 -280,280 -155,0 -281,-125 -281,-280 0,-155 126,-281 281,-281z"/>
   <path class="fil1" style="mask:url(#id51)" d="M7561 5530c36,0 66,30 66,67 0,37 -30,67 -66,67 -37,0 -67,-30 -67,-67 0,-37 30,-67 67,-67z"/>
  </g>
  <g id="_2169647183200">
   <path class="fil6" style="mask:url(#id53)" d="M7920 1168c-155,0 -280,125 -280,280 0,155 125,281 280,281 155,0 281,-126 281,-281 0,-155 -126,-280 -281,-280z"/>
   <path class="fil1" style="mask:url(#id55)" d="M7920 1382c-36,0 -66,30 -66,66 0,37 30,67 66,67 37,0 67,-30 67,-67 0,-36 -30,-66 -67,-66z"/>
  </g>
  <g id="_2169647185536">
   <path class="fil14" style="mask:url(#id57)" d="M6950 842c54,0 98,44 98,98 0,54 -44,98 -98,98 -54,0 -98,-44 -98,-98 0,-54 44,-98 98,-98z"/>
   <path class="fil1" style="mask:url(#id59)" d="M6950 917c13,0 23,11 23,23 0,13 -10,24 -23,24 -13,0 -23,-11 -23,-24 0,-12 10,-23 23,-23z"/>
  </g>
  <ellipse class="fil1" cx="7703" cy="6488" rx="369" ry="85"/>
  <g style="clip-path:url(#id61)">
  </g>
  <g style="clip-path:url(#id62)">
   <image x="7397" y="2280" width="611" height="4303" xlink:href="imagen pagina web_Images\imagen pagina web_ImgID2.png"/>
  </g>
  <g style="clip-path:url(#id63)">
  </g>
  <path class="fil15" style="mask:url(#id64)" d="M7703 6677c350,0 634,-109 634,-243 0,-133 -284,-242 -634,-242 -350,0 -633,109 -633,242 0,134 283,243 633,243z"/>
  <g style="clip-path:url(#id66)">
  </g>
  <g style="clip-path:url(#id67)">
   <image x="6170" y="2107" width="3064" height="4690" xlink:href="imagen pagina web_Images\imagen pagina web_ImgID3.png"/>
  </g>
  <g style="clip-path:url(#id68)">
  </g>
  <polygon class="fil16" points="8158,5371 8146,5364 8134,5357 8134,5344 8134,5330 8146,5323 8158,5316 8170,5323 8181,5330 8181,5344 8181,5357 8170,5364 "/>
  <polygon class="fil17" points="7372,5644 7353,5634 7334,5623 7334,5601 7334,5580 7353,5569 7372,5558 7390,5569 7409,5580 7409,5601 7409,5623 7390,5634 "/>
  <polygon class="fil18" points="7266,5377 7254,5369 7241,5362 7241,5347 7241,5333 7254,5325 7266,5318 7279,5325 7292,5333 7292,5347 7292,5362 7279,5369 "/>
  <polygon class="fil18" points="7275,4491 7263,4483 7250,4476 7250,4461 7250,4447 7263,4439 7275,4432 7288,4439 7301,4447 7301,4461 7301,4476 7288,4483 "/>
  <polygon class="fil16" points="6984,4723 6957,4707 6930,4692 6930,4661 6930,4630 6957,4614 6984,4599 7011,4614 7038,4630 7038,4661 7038,4692 7011,4707 "/>
  <polygon class="fil17" points="8271,4213 8252,4202 8233,4191 8233,4170 8233,4148 8252,4137 8271,4127 8289,4137 8308,4148 8308,4170 8308,4191 8289,4202 "/>
  <polygon class="fil16" points="8163,4859 8151,4853 8139,4846 8139,4832 8139,4819 8151,4812 8163,4805 8175,4812 8187,4819 8187,4832 8187,4846 8175,4853 "/>
  <polygon class="fil18" points="6170,2975 6158,2968 6145,2960 6145,2946 6145,2931 6158,2924 6170,2916 6183,2924 6196,2931 6196,2946 6196,2960 6183,2968 "/>
 </g>
</svg>
