<?xml version="1.0" encoding="UTF-8"?>
<!DOCTYPE svg PUBLIC "-//W3C//DTD SVG 1.1//EN" "http://www.w3.org/Graphics/SVG/1.1/DTD/svg11.dtd">
<!-- Creator: CorelDRAW X8 -->
<svg xmlns="http://www.w3.org/2000/svg" xml:space="preserve" width="112.945mm" height="112.945mm" version="1.1" style="shape-rendering:geometricPrecision; text-rendering:geometricPrecision; image-rendering:optimizeQuality; fill-rule:evenodd; clip-rule:evenodd"
viewBox="0 0 7068 7068"
 xmlns:xlink="http://www.w3.org/1999/xlink">
 <defs>
  <style type="text/css">
   <![CDATA[
    .fil0 {fill:url(#id1)}
   ]]>
  </style>
   <clipPath id="id0">
    <path d="M3534 0c1952,0 3534,1582 3534,3534 0,1952 -1582,3534 -3534,3534 -1952,0 -3534,-1582 -3534,-3534 0,-1952 1582,-3534 3534,-3534z"/>
   </clipPath>
  <linearGradient id="id1" gradientUnits="userSpaceOnUse" x1="3118.94" y1="971.349" x2="3118.97" y2="7068.33">
   <stop offset="0" style="stop-opacity:1; stop-color:#00CCFF"/>
   <stop offset="0.419608" style="stop-opacity:1; stop-color:aqua"/>
   <stop offset="1" style="stop-opacity:1; stop-color:#61FFA0"/>
  </linearGradient>
 </defs>
 <g id="Capa_x0020_1">
  <metadata id="CorelCorpID_0Corel-Layer"/>
  <g style="clip-path:url(#id0)">
   <image x="-302" y="-799" width="7672" height="11493" xlink:href="ulises_profile_Images\ulises_profile_ImgID1.png"/>
  </g>
  <path class="fil0" d="M3534 0c1952,0 3534,1582 3534,3534 0,1952 -1582,3534 -3534,3534 -1952,0 -3534,-1582 -3534,-3534 0,-1952 1582,-3534 3534,-3534zm0 131c1880,0 3404,1523 3404,3403 0,1880 -1524,3404 -3404,3404 -1880,0 -3403,-1524 -3403,-3404 0,-1880 1523,-3403 3403,-3403z"/>
 </g>
</svg>
